<?xml version="1.0" encoding="UTF-8" standalone="no"?>
<!DOCTYPE svg PUBLIC "-//W3C//DTD SVG 1.1//EN"
 "http://www.w3.org/Graphics/SVG/1.1/DTD/svg11.dtd">
<!-- Generated by graphviz version 2.47.0 (20210316.0004)
 -->
<!-- Title: dependencies Pages: 1 -->
<svg width="607pt" height="284pt"
 viewBox="0.00 0.00 607.00 284.00" xmlns="http://www.w3.org/2000/svg" xmlns:xlink="http://www.w3.org/1999/xlink">
<g id="graph0" class="graph" transform="scale(1 1) rotate(0) translate(4 280)">
<title>dependencies</title>
<polygon fill="white" stroke="transparent" points="-4,4 -4,-280 603,-280 603,4 -4,4"/>
<text text-anchor="start" x="278.51" y="-42.4" font-family="Times-12" font-weight="bold" font-size="14.00">Legend</text>
<polygon fill="#ffffb3" stroke="transparent" points="65.5,-10 65.5,-30 85.5,-30 85.5,-10 65.5,-10"/>
<text text-anchor="start" x="89.13" y="-15.4" font-family="Times-12" font-size="14.00"> &#160;Declarations</text>
<polygon fill="#8dd3c7" stroke="transparent" points="178.5,-10 178.5,-30 198.5,-30 198.5,-10 178.5,-10"/>
<text text-anchor="start" x="202.23" y="-15.4" font-family="Times-12" font-size="14.00"> &#160;Module</text>
<polygon fill="#80b1d3" stroke="transparent" points="264.5,-10 264.5,-30 284.5,-30 284.5,-10 264.5,-10"/>
<text text-anchor="start" x="288.28" y="-15.4" font-family="Times-12" font-size="14.00"> &#160;Bootstrap</text>
<polygon fill="#fdb462" stroke="transparent" points="361.5,-10 361.5,-30 381.5,-30 381.5,-10 361.5,-10"/>
<text text-anchor="start" x="385.17" y="-15.4" font-family="Times-12" font-size="14.00"> &#160;Providers</text>
<polygon fill="#fb8072" stroke="transparent" points="457.5,-10 457.5,-30 477.5,-30 477.5,-10 457.5,-10"/>
<text text-anchor="start" x="481.23" y="-15.4" font-family="Times-12" font-size="14.00"> &#160;Exports</text>
<g id="clust1" class="cluster">
<title>cluster_SharedModule</title>
<polygon fill="none" stroke="black" stroke-dasharray="1,5" points="8,-70 8,-268 591,-268 591,-70 8,-70"/>
</g>
<g id="clust8" class="cluster">
<title>cluster_SharedModule_exports</title>
<polygon fill="none" stroke="black" points="16,-208 16,-260 583,-260 583,-208 16,-208"/>
</g>
<g id="clust2" class="cluster">
<title>cluster_SharedModule_declarations</title>
<polygon fill="none" stroke="black" points="24,-78 24,-130 577,-130 577,-78 24,-78"/>
</g>
<!-- FooterComponent -->
<g id="node1" class="node">
<title>FooterComponent</title>
<polygon fill="#ffffb3" stroke="black" points="568.88,-122 451.12,-122 451.12,-86 568.88,-86 568.88,-122"/>
<text text-anchor="middle" x="510" y="-99.8" font-family="Times,serif" font-size="14.00">FooterComponent</text>
</g>
<!-- SharedModule -->
<g id="node5" class="node">
<title>SharedModule</title>
<polygon fill="#8dd3c7" stroke="black" points="284.42,-187 281.42,-191 260.42,-191 257.42,-187 185.58,-187 185.58,-151 284.42,-151 284.42,-187"/>
<text text-anchor="middle" x="235" y="-164.8" font-family="Times,serif" font-size="14.00">SharedModule</text>
</g>
<!-- FooterComponent&#45;&gt;SharedModule -->
<g id="edge1" class="edge">
<title>FooterComponent&#45;&gt;SharedModule</title>
<path fill="none" stroke="black" d="M530.4,-122.27C530.4,-140.56 530.4,-166 530.4,-166 530.4,-166 294.44,-166 294.44,-166"/>
<polygon fill="black" stroke="black" points="294.44,-162.5 284.44,-166 294.44,-169.5 294.44,-162.5"/>
</g>
<!-- HeaderComponent -->
<g id="node2" class="node">
<title>HeaderComponent</title>
<polygon fill="#ffffb3" stroke="black" points="432.74,-122 311.26,-122 311.26,-86 432.74,-86 432.74,-122"/>
<text text-anchor="middle" x="372" y="-99.8" font-family="Times,serif" font-size="14.00">HeaderComponent</text>
</g>
<!-- HeaderComponent&#45;&gt;SharedModule -->
<g id="edge2" class="edge">
<title>HeaderComponent&#45;&gt;SharedModule</title>
<path fill="none" stroke="black" d="M392.29,-122.01C392.29,-138.05 392.29,-159 392.29,-159 392.29,-159 294.34,-159 294.34,-159"/>
<polygon fill="black" stroke="black" points="294.34,-155.5 284.34,-159 294.34,-162.5 294.34,-155.5"/>
</g>
<!-- LayoutComponent -->
<g id="node3" class="node">
<title>LayoutComponent</title>
<polygon fill="#ffffb3" stroke="black" points="293.49,-122 172.51,-122 172.51,-86 293.49,-86 293.49,-122"/>
<text text-anchor="middle" x="233" y="-99.8" font-family="Times,serif" font-size="14.00">LayoutComponent</text>
</g>
<!-- LayoutComponent&#45;&gt;SharedModule -->
<g id="edge3" class="edge">
<title>LayoutComponent&#45;&gt;SharedModule</title>
<path fill="none" stroke="black" d="M235,-122.11C235,-122.11 235,-140.99 235,-140.99"/>
<polygon fill="black" stroke="black" points="231.5,-140.99 235,-150.99 238.5,-140.99 231.5,-140.99"/>
</g>
<!-- NavbarComponent -->
<g id="node4" class="node">
<title>NavbarComponent</title>
<polygon fill="#ffffb3" stroke="black" points="154.03,-122 31.97,-122 31.97,-86 154.03,-86 154.03,-122"/>
<text text-anchor="middle" x="93" y="-99.8" font-family="Times,serif" font-size="14.00">NavbarComponent</text>
</g>
<!-- NavbarComponent&#45;&gt;SharedModule -->
<g id="edge4" class="edge">
<title>NavbarComponent&#45;&gt;SharedModule</title>
<path fill="none" stroke="black" d="M110.59,-122.02C110.59,-139.37 110.59,-163 110.59,-163 110.59,-163 175.47,-163 175.47,-163"/>
<polygon fill="black" stroke="black" points="175.47,-166.5 185.47,-163 175.47,-159.5 175.47,-166.5"/>
</g>
<!-- FooterComponent  -->
<g id="node6" class="node">
<title>FooterComponent </title>
<polygon fill="#fb8072" stroke="black" points="574.88,-252 453.12,-252 453.12,-216 574.88,-216 574.88,-252"/>
<text text-anchor="middle" x="514" y="-229.8" font-family="Times,serif" font-size="14.00">FooterComponent </text>
</g>
<!-- SharedModule&#45;&gt;FooterComponent  -->
<g id="edge5" class="edge">
<title>SharedModule&#45;&gt;FooterComponent </title>
<path fill="none" stroke="black" stroke-dasharray="5,2" d="M284.22,-173C358.8,-173 491.85,-173 491.85,-173 491.85,-173 491.85,-205.7 491.85,-205.7"/>
<polygon fill="black" stroke="black" points="488.35,-205.7 491.85,-215.7 495.35,-205.7 488.35,-205.7"/>
</g>
<!-- HeaderComponent  -->
<g id="node7" class="node">
<title>HeaderComponent </title>
<polygon fill="#fb8072" stroke="black" points="435.74,-252 310.26,-252 310.26,-216 435.74,-216 435.74,-252"/>
<text text-anchor="middle" x="373" y="-229.8" font-family="Times,serif" font-size="14.00">HeaderComponent </text>
</g>
<!-- SharedModule&#45;&gt;HeaderComponent  -->
<g id="edge6" class="edge">
<title>SharedModule&#45;&gt;HeaderComponent </title>
<path fill="none" stroke="black" stroke-dasharray="5,2" d="M284.5,-180C316.3,-180 351.71,-180 351.71,-180 351.71,-180 351.71,-205.72 351.71,-205.72"/>
<polygon fill="black" stroke="black" points="348.21,-205.72 351.71,-215.72 355.21,-205.72 348.21,-205.72"/>
</g>
<!-- LayoutComponent  -->
<g id="node8" class="node">
<title>LayoutComponent </title>
<polygon fill="#fb8072" stroke="black" points="292.49,-252 167.51,-252 167.51,-216 292.49,-216 292.49,-252"/>
<text text-anchor="middle" x="230" y="-229.8" font-family="Times,serif" font-size="14.00">LayoutComponent </text>
</g>
<!-- SharedModule&#45;&gt;LayoutComponent  -->
<g id="edge7" class="edge">
<title>SharedModule&#45;&gt;LayoutComponent </title>
<path fill="none" stroke="black" stroke-dasharray="5,2" d="M235,-187.11C235,-187.11 235,-205.99 235,-205.99"/>
<polygon fill="black" stroke="black" points="231.5,-205.99 235,-215.99 238.5,-205.99 231.5,-205.99"/>
</g>
<!-- NavbarComponent  -->
<g id="node9" class="node">
<title>NavbarComponent </title>
<polygon fill="#fb8072" stroke="black" points="150.03,-252 23.97,-252 23.97,-216 150.03,-216 150.03,-252"/>
<text text-anchor="middle" x="87" y="-229.8" font-family="Times,serif" font-size="14.00">NavbarComponent </text>
</g>
<!-- SharedModule&#45;&gt;NavbarComponent  -->
<g id="edge8" class="edge">
<title>SharedModule&#45;&gt;NavbarComponent </title>
<path fill="none" stroke="black" stroke-dasharray="5,2" d="M185.4,-175C137.18,-175 71.16,-175 71.16,-175 71.16,-175 71.16,-205.98 71.16,-205.98"/>
<polygon fill="black" stroke="black" points="67.66,-205.98 71.16,-215.98 74.66,-205.98 67.66,-205.98"/>
</g>
</g>
</svg>
