<?xml version="1.0" encoding="UTF-8" standalone="no"?>
<!DOCTYPE svg PUBLIC "-//W3C//DTD SVG 1.1//EN"
 "http://www.w3.org/Graphics/SVG/1.1/DTD/svg11.dtd">
<!-- Generated by graphviz version 2.47.0 (20210316.0004)
 -->
<!-- Title: dependencies Pages: 1 -->
<svg width="3491pt" height="211pt"
 viewBox="0.00 0.00 3491.00 211.00" xmlns="http://www.w3.org/2000/svg" xmlns:xlink="http://www.w3.org/1999/xlink">
<g id="graph0" class="graph" transform="scale(1 1) rotate(0) translate(4 207)">
<title>dependencies</title>
<polygon fill="white" stroke="transparent" points="-4,4 -4,-207 3487,-207 3487,4 -4,4"/>
<text text-anchor="start" x="1720.51" y="-42.4" font-family="Times-12" font-weight="bold" font-size="14.00">Legend</text>
<polygon fill="#ffffb3" stroke="transparent" points="1507.5,-10 1507.5,-30 1527.5,-30 1527.5,-10 1507.5,-10"/>
<text text-anchor="start" x="1531.13" y="-15.4" font-family="Times-12" font-size="14.00"> &#160;Declarations</text>
<polygon fill="#8dd3c7" stroke="transparent" points="1620.5,-10 1620.5,-30 1640.5,-30 1640.5,-10 1620.5,-10"/>
<text text-anchor="start" x="1644.23" y="-15.4" font-family="Times-12" font-size="14.00"> &#160;Module</text>
<polygon fill="#80b1d3" stroke="transparent" points="1706.5,-10 1706.5,-30 1726.5,-30 1726.5,-10 1706.5,-10"/>
<text text-anchor="start" x="1730.28" y="-15.4" font-family="Times-12" font-size="14.00"> &#160;Bootstrap</text>
<polygon fill="#fdb462" stroke="transparent" points="1803.5,-10 1803.5,-30 1823.5,-30 1823.5,-10 1803.5,-10"/>
<text text-anchor="start" x="1827.17" y="-15.4" font-family="Times-12" font-size="14.00"> &#160;Providers</text>
<polygon fill="#fb8072" stroke="transparent" points="1899.5,-10 1899.5,-30 1919.5,-30 1919.5,-10 1899.5,-10"/>
<text text-anchor="start" x="1923.23" y="-15.4" font-family="Times-12" font-size="14.00"> &#160;Exports</text>
<g id="clust1" class="cluster">
<title>cluster_ServiciosModule</title>
<polygon fill="none" stroke="black" stroke-dasharray="1,5" points="8,-70 8,-195 3475,-195 3475,-70 8,-70"/>
</g>
<g id="clust19" class="cluster">
<title>cluster_ServiciosModule_imports</title>
<polygon fill="none" stroke="black" points="3353,-78 3353,-130 3467,-130 3467,-78 3353,-78"/>
</g>
<g id="clust2" class="cluster">
<title>cluster_ServiciosModule_declarations</title>
<polygon fill="none" stroke="black" points="16,-78 16,-130 3345,-130 3345,-78 16,-78"/>
</g>
<!-- AccidentesAutonomosComponent -->
<g id="node1" class="node">
<title>AccidentesAutonomosComponent</title>
<polygon fill="#ffffb3" stroke="black" points="3337.36,-122 3128.64,-122 3128.64,-86 3337.36,-86 3337.36,-122"/>
<text text-anchor="middle" x="3233" y="-99.8" font-family="Times,serif" font-size="14.00">AccidentesAutonomosComponent</text>
</g>
<!-- ServiciosModule -->
<g id="node17" class="node">
<title>ServiciosModule</title>
<polygon fill="#8dd3c7" stroke="black" points="1873.65,-187 1870.65,-191 1849.65,-191 1846.65,-187 1762.35,-187 1762.35,-151 1873.65,-151 1873.65,-187"/>
<text text-anchor="middle" x="1818" y="-164.8" font-family="Times,serif" font-size="14.00">ServiciosModule</text>
</g>
<!-- AccidentesAutonomosComponent&#45;&gt;ServiciosModule -->
<g id="edge1" class="edge">
<title>AccidentesAutonomosComponent&#45;&gt;ServiciosModule</title>
<path fill="none" stroke="black" d="M3233,-122.16C3233,-144.35 3233,-179 3233,-179 3233,-179 1883.91,-179 1883.91,-179"/>
<polygon fill="black" stroke="black" points="1883.91,-175.5 1873.91,-179 1883.91,-182.5 1883.91,-175.5"/>
</g>
<!-- AhorroParticularesComponent -->
<g id="node2" class="node">
<title>AhorroParticularesComponent</title>
<polygon fill="#ffffb3" stroke="black" points="3110.84,-122 2923.16,-122 2923.16,-86 3110.84,-86 3110.84,-122"/>
<text text-anchor="middle" x="3017" y="-99.8" font-family="Times,serif" font-size="14.00">AhorroParticularesComponent</text>
</g>
<!-- AhorroParticularesComponent&#45;&gt;ServiciosModule -->
<g id="edge2" class="edge">
<title>AhorroParticularesComponent&#45;&gt;ServiciosModule</title>
<path fill="none" stroke="black" d="M3017,-122.28C3017,-143.32 3017,-175 3017,-175 3017,-175 1883.82,-175 1883.82,-175"/>
<polygon fill="black" stroke="black" points="1883.82,-171.5 1873.82,-175 1883.82,-178.5 1883.82,-171.5"/>
</g>
<!-- ComercioAutonomosComponent -->
<g id="node3" class="node">
<title>ComercioAutonomosComponent</title>
<polygon fill="#ffffb3" stroke="black" points="2904.87,-122 2703.13,-122 2703.13,-86 2904.87,-86 2904.87,-122"/>
<text text-anchor="middle" x="2804" y="-99.8" font-family="Times,serif" font-size="14.00">ComercioAutonomosComponent</text>
</g>
<!-- ComercioAutonomosComponent&#45;&gt;ServiciosModule -->
<g id="edge3" class="edge">
<title>ComercioAutonomosComponent&#45;&gt;ServiciosModule</title>
<path fill="none" stroke="black" d="M2804,-122.31C2804,-142.15 2804,-171 2804,-171 2804,-171 1883.84,-171 1883.84,-171"/>
<polygon fill="black" stroke="black" points="1883.84,-167.5 1873.84,-171 1883.84,-174.5 1883.84,-167.5"/>
</g>
<!-- HogarParticularesComponent -->
<g id="node4" class="node">
<title>HogarParticularesComponent</title>
<polygon fill="#ffffb3" stroke="black" points="2685.39,-122 2502.61,-122 2502.61,-86 2685.39,-86 2685.39,-122"/>
<text text-anchor="middle" x="2594" y="-99.8" font-family="Times,serif" font-size="14.00">HogarParticularesComponent</text>
</g>
<!-- HogarParticularesComponent&#45;&gt;ServiciosModule -->
<g id="edge4" class="edge">
<title>HogarParticularesComponent&#45;&gt;ServiciosModule</title>
<path fill="none" stroke="black" d="M2594,-122.22C2594,-140.83 2594,-167 2594,-167 2594,-167 1883.81,-167 1883.81,-167"/>
<polygon fill="black" stroke="black" points="1883.81,-163.5 1873.81,-167 1883.81,-170.5 1883.81,-163.5"/>
</g>
<!-- IndexServiciosComponent -->
<g id="node5" class="node">
<title>IndexServiciosComponent</title>
<polygon fill="#ffffb3" stroke="black" points="2484.81,-122 2319.19,-122 2319.19,-86 2484.81,-86 2484.81,-122"/>
<text text-anchor="middle" x="2402" y="-99.8" font-family="Times,serif" font-size="14.00">IndexServiciosComponent</text>
</g>
<!-- IndexServiciosComponent&#45;&gt;ServiciosModule -->
<g id="edge5" class="edge">
<title>IndexServiciosComponent&#45;&gt;ServiciosModule</title>
<path fill="none" stroke="black" d="M2402,-122.02C2402,-139.37 2402,-163 2402,-163 2402,-163 1883.73,-163 1883.73,-163"/>
<polygon fill="black" stroke="black" points="1883.73,-159.5 1873.73,-163 1883.73,-166.5 1883.73,-159.5"/>
</g>
<!-- OtrosEmpresasComponent -->
<g id="node6" class="node">
<title>OtrosEmpresasComponent</title>
<polygon fill="#ffffb3" stroke="black" points="2301.36,-122 2134.64,-122 2134.64,-86 2301.36,-86 2301.36,-122"/>
<text text-anchor="middle" x="2218" y="-99.8" font-family="Times,serif" font-size="14.00">OtrosEmpresasComponent</text>
</g>
<!-- OtrosEmpresasComponent&#45;&gt;ServiciosModule -->
<g id="edge6" class="edge">
<title>OtrosEmpresasComponent&#45;&gt;ServiciosModule</title>
<path fill="none" stroke="black" d="M2218,-122.01C2218,-138.05 2218,-159 2218,-159 2218,-159 1884.04,-159 1884.04,-159"/>
<polygon fill="black" stroke="black" points="1884.04,-155.5 1874.04,-159 1884.04,-162.5 1884.04,-155.5"/>
</g>
<!-- OtrosParticularesComponent -->
<g id="node7" class="node">
<title>OtrosParticularesComponent</title>
<polygon fill="#ffffb3" stroke="black" points="2116.01,-122 1937.99,-122 1937.99,-86 2116.01,-86 2116.01,-122"/>
<text text-anchor="middle" x="2027" y="-99.8" font-family="Times,serif" font-size="14.00">OtrosParticularesComponent</text>
</g>
<!-- OtrosParticularesComponent&#45;&gt;ServiciosModule -->
<g id="edge7" class="edge">
<title>OtrosParticularesComponent&#45;&gt;ServiciosModule</title>
<path fill="none" stroke="black" d="M2027,-122.12C2027,-136.78 2027,-155 2027,-155 2027,-155 1883.73,-155 1883.73,-155"/>
<polygon fill="black" stroke="black" points="1883.73,-151.5 1873.73,-155 1883.73,-158.5 1883.73,-151.5"/>
</g>
<!-- PensionesAutonomosComponent -->
<g id="node8" class="node">
<title>PensionesAutonomosComponent</title>
<polygon fill="#ffffb3" stroke="black" points="1919.16,-122 1716.84,-122 1716.84,-86 1919.16,-86 1919.16,-122"/>
<text text-anchor="middle" x="1818" y="-99.8" font-family="Times,serif" font-size="14.00">PensionesAutonomosComponent</text>
</g>
<!-- PensionesAutonomosComponent&#45;&gt;ServiciosModule -->
<g id="edge8" class="edge">
<title>PensionesAutonomosComponent&#45;&gt;ServiciosModule</title>
<path fill="none" stroke="black" d="M1818,-122.11C1818,-122.11 1818,-140.99 1818,-140.99"/>
<polygon fill="black" stroke="black" points="1814.5,-140.99 1818,-150.99 1821.5,-140.99 1814.5,-140.99"/>
</g>
<!-- PensionesEmpresasComponent -->
<g id="node9" class="node">
<title>PensionesEmpresasComponent</title>
<polygon fill="#ffffb3" stroke="black" points="1698.75,-122 1507.25,-122 1507.25,-86 1698.75,-86 1698.75,-122"/>
<text text-anchor="middle" x="1603" y="-99.8" font-family="Times,serif" font-size="14.00">PensionesEmpresasComponent</text>
</g>
<!-- PensionesEmpresasComponent&#45;&gt;ServiciosModule -->
<g id="edge9" class="edge">
<title>PensionesEmpresasComponent&#45;&gt;ServiciosModule</title>
<path fill="none" stroke="black" d="M1603,-122.12C1603,-136.78 1603,-155 1603,-155 1603,-155 1752.07,-155 1752.07,-155"/>
<polygon fill="black" stroke="black" points="1752.07,-158.5 1762.07,-155 1752.07,-151.5 1752.07,-158.5"/>
</g>
<!-- ResponsabilidadCivilEmpresasComponent -->
<g id="node10" class="node">
<title>ResponsabilidadCivilEmpresasComponent</title>
<polygon fill="#ffffb3" stroke="black" points="1489.3,-122 1232.7,-122 1232.7,-86 1489.3,-86 1489.3,-122"/>
<text text-anchor="middle" x="1361" y="-99.8" font-family="Times,serif" font-size="14.00">ResponsabilidadCivilEmpresasComponent</text>
</g>
<!-- ResponsabilidadCivilEmpresasComponent&#45;&gt;ServiciosModule -->
<g id="edge10" class="edge">
<title>ResponsabilidadCivilEmpresasComponent&#45;&gt;ServiciosModule</title>
<path fill="none" stroke="black" d="M1361,-122.01C1361,-138.05 1361,-159 1361,-159 1361,-159 1751.96,-159 1751.96,-159"/>
<polygon fill="black" stroke="black" points="1751.96,-162.5 1761.96,-159 1751.96,-155.5 1751.96,-162.5"/>
</g>
<!-- SaludAutonomosComponent -->
<g id="node11" class="node">
<title>SaludAutonomosComponent</title>
<polygon fill="#ffffb3" stroke="black" points="1215.05,-122 1036.95,-122 1036.95,-86 1215.05,-86 1215.05,-122"/>
<text text-anchor="middle" x="1126" y="-99.8" font-family="Times,serif" font-size="14.00">SaludAutonomosComponent</text>
</g>
<!-- SaludAutonomosComponent&#45;&gt;ServiciosModule -->
<g id="edge11" class="edge">
<title>SaludAutonomosComponent&#45;&gt;ServiciosModule</title>
<path fill="none" stroke="black" d="M1126,-122.02C1126,-139.37 1126,-163 1126,-163 1126,-163 1752.25,-163 1752.25,-163"/>
<polygon fill="black" stroke="black" points="1752.25,-166.5 1762.25,-163 1752.25,-159.5 1752.25,-166.5"/>
</g>
<!-- SaludEmpresasComponent -->
<g id="node12" class="node">
<title>SaludEmpresasComponent</title>
<polygon fill="#ffffb3" stroke="black" points="1018.64,-122 851.36,-122 851.36,-86 1018.64,-86 1018.64,-122"/>
<text text-anchor="middle" x="935" y="-99.8" font-family="Times,serif" font-size="14.00">SaludEmpresasComponent</text>
</g>
<!-- SaludEmpresasComponent&#45;&gt;ServiciosModule -->
<g id="edge12" class="edge">
<title>SaludEmpresasComponent&#45;&gt;ServiciosModule</title>
<path fill="none" stroke="black" d="M935,-122.22C935,-140.83 935,-167 935,-167 935,-167 1752.09,-167 1752.09,-167"/>
<polygon fill="black" stroke="black" points="1752.09,-170.5 1762.09,-167 1752.09,-163.5 1752.09,-170.5"/>
</g>
<!-- SaludParticularesComponent -->
<g id="node13" class="node">
<title>SaludParticularesComponent</title>
<polygon fill="#ffffb3" stroke="black" points="833.8,-122 654.2,-122 654.2,-86 833.8,-86 833.8,-122"/>
<text text-anchor="middle" x="744" y="-99.8" font-family="Times,serif" font-size="14.00">SaludParticularesComponent</text>
</g>
<!-- SaludParticularesComponent&#45;&gt;ServiciosModule -->
<g id="edge13" class="edge">
<title>SaludParticularesComponent&#45;&gt;ServiciosModule</title>
<path fill="none" stroke="black" d="M744,-122.31C744,-142.15 744,-171 744,-171 744,-171 1752.14,-171 1752.14,-171"/>
<polygon fill="black" stroke="black" points="1752.14,-174.5 1762.14,-171 1752.14,-167.5 1752.14,-174.5"/>
</g>
<!-- VehiculoParticularesComponent -->
<g id="node14" class="node">
<title>VehiculoParticularesComponent</title>
<polygon fill="#ffffb3" stroke="black" points="636.23,-122 437.77,-122 437.77,-86 636.23,-86 636.23,-122"/>
<text text-anchor="middle" x="537" y="-99.8" font-family="Times,serif" font-size="14.00">VehiculoParticularesComponent</text>
</g>
<!-- VehiculoParticularesComponent&#45;&gt;ServiciosModule -->
<g id="edge14" class="edge">
<title>VehiculoParticularesComponent&#45;&gt;ServiciosModule</title>
<path fill="none" stroke="black" d="M537,-122.28C537,-143.32 537,-175 537,-175 537,-175 1752.13,-175 1752.13,-175"/>
<polygon fill="black" stroke="black" points="1752.13,-178.5 1762.13,-175 1752.13,-171.5 1752.13,-178.5"/>
</g>
<!-- VehiculosAutonomosComponent -->
<g id="node15" class="node">
<title>VehiculosAutonomosComponent</title>
<polygon fill="#ffffb3" stroke="black" points="419.93,-122 216.07,-122 216.07,-86 419.93,-86 419.93,-122"/>
<text text-anchor="middle" x="318" y="-99.8" font-family="Times,serif" font-size="14.00">VehiculosAutonomosComponent</text>
</g>
<!-- VehiculosAutonomosComponent&#45;&gt;ServiciosModule -->
<g id="edge15" class="edge">
<title>VehiculosAutonomosComponent&#45;&gt;ServiciosModule</title>
<path fill="none" stroke="black" d="M318,-122.16C318,-144.35 318,-179 318,-179 318,-179 1751.94,-179 1751.94,-179"/>
<polygon fill="black" stroke="black" points="1751.94,-182.5 1761.94,-179 1751.94,-175.5 1751.94,-182.5"/>
</g>
<!-- VidaParticularesComponent -->
<g id="node16" class="node">
<title>VidaParticularesComponent</title>
<polygon fill="#ffffb3" stroke="black" points="198.12,-122 23.88,-122 23.88,-86 198.12,-86 198.12,-122"/>
<text text-anchor="middle" x="111" y="-99.8" font-family="Times,serif" font-size="14.00">VidaParticularesComponent</text>
</g>
<!-- VidaParticularesComponent&#45;&gt;ServiciosModule -->
<g id="edge16" class="edge">
<title>VidaParticularesComponent&#45;&gt;ServiciosModule</title>
<path fill="none" stroke="black" d="M111,-122.32C111,-145.66 111,-183 111,-183 111,-183 1752.18,-183 1752.18,-183"/>
<polygon fill="black" stroke="black" points="1752.18,-186.5 1762.18,-183 1752.18,-179.5 1752.18,-186.5"/>
</g>
<!-- SharedModule -->
<g id="node18" class="node">
<title>SharedModule</title>
<polygon fill="#8dd3c7" stroke="black" points="3459.42,-122 3456.42,-126 3435.42,-126 3432.42,-122 3360.58,-122 3360.58,-86 3459.42,-86 3459.42,-122"/>
<text text-anchor="middle" x="3410" y="-99.8" font-family="Times,serif" font-size="14.00">SharedModule</text>
</g>
<!-- SharedModule&#45;&gt;ServiciosModule -->
<g id="edge17" class="edge">
<title>SharedModule&#45;&gt;ServiciosModule</title>
<path fill="none" stroke="black" d="M3410,-122.32C3410,-145.66 3410,-183 3410,-183 3410,-183 1883.73,-183 1883.73,-183"/>
<polygon fill="black" stroke="black" points="1883.73,-179.5 1873.73,-183 1883.73,-186.5 1883.73,-179.5"/>
</g>
</g>
</svg>
