<?xml version="1.0" encoding="UTF-8" standalone="no"?>
<!DOCTYPE svg PUBLIC "-//W3C//DTD SVG 1.1//EN"
 "http://www.w3.org/Graphics/SVG/1.1/DTD/svg11.dtd">
<!-- Generated by graphviz version 2.47.0 (20210316.0004)
 -->
<!-- Title: dependencies Pages: 1 -->
<svg width="699pt" height="211pt"
 viewBox="0.00 0.00 699.00 211.00" xmlns="http://www.w3.org/2000/svg" xmlns:xlink="http://www.w3.org/1999/xlink">
<g id="graph0" class="graph" transform="scale(1 1) rotate(0) translate(4 207)">
<title>dependencies</title>
<polygon fill="white" stroke="transparent" points="-4,4 -4,-207 695,-207 695,4 -4,4"/>
<text text-anchor="start" x="324.51" y="-42.4" font-family="Times-12" font-weight="bold" font-size="14.00">Legend</text>
<polygon fill="#ffffb3" stroke="transparent" points="111.5,-10 111.5,-30 131.5,-30 131.5,-10 111.5,-10"/>
<text text-anchor="start" x="135.13" y="-15.4" font-family="Times-12" font-size="14.00"> &#160;Declarations</text>
<polygon fill="#8dd3c7" stroke="transparent" points="224.5,-10 224.5,-30 244.5,-30 244.5,-10 224.5,-10"/>
<text text-anchor="start" x="248.23" y="-15.4" font-family="Times-12" font-size="14.00"> &#160;Module</text>
<polygon fill="#80b1d3" stroke="transparent" points="310.5,-10 310.5,-30 330.5,-30 330.5,-10 310.5,-10"/>
<text text-anchor="start" x="334.28" y="-15.4" font-family="Times-12" font-size="14.00"> &#160;Bootstrap</text>
<polygon fill="#fdb462" stroke="transparent" points="407.5,-10 407.5,-30 427.5,-30 427.5,-10 407.5,-10"/>
<text text-anchor="start" x="431.17" y="-15.4" font-family="Times-12" font-size="14.00"> &#160;Providers</text>
<polygon fill="#fb8072" stroke="transparent" points="503.5,-10 503.5,-30 523.5,-30 523.5,-10 503.5,-10"/>
<text text-anchor="start" x="527.23" y="-15.4" font-family="Times-12" font-size="14.00"> &#160;Exports</text>
<g id="clust1" class="cluster">
<title>cluster_GestionesModule</title>
<polygon fill="none" stroke="black" stroke-dasharray="1,5" points="8,-70 8,-195 683,-195 683,-70 8,-70"/>
</g>
<g id="clust6" class="cluster">
<title>cluster_GestionesModule_imports</title>
<polygon fill="none" stroke="black" points="561,-78 561,-130 675,-130 675,-78 561,-78"/>
</g>
<g id="clust2" class="cluster">
<title>cluster_GestionesModule_declarations</title>
<polygon fill="none" stroke="black" points="16,-78 16,-130 553,-130 553,-78 16,-78"/>
</g>
<!-- IndexGestionesComponent -->
<g id="node1" class="node">
<title>IndexGestionesComponent</title>
<polygon fill="#ffffb3" stroke="black" points="545.41,-122 376.59,-122 376.59,-86 545.41,-86 545.41,-122"/>
<text text-anchor="middle" x="461" y="-99.8" font-family="Times,serif" font-size="14.00">IndexGestionesComponent</text>
</g>
<!-- GestionesModule -->
<g id="node4" class="node">
<title>GestionesModule</title>
<polygon fill="#8dd3c7" stroke="black" points="428.26,-187 425.26,-191 404.26,-191 401.26,-187 313.74,-187 313.74,-151 428.26,-151 428.26,-187"/>
<text text-anchor="middle" x="371" y="-164.8" font-family="Times,serif" font-size="14.00">GestionesModule</text>
</g>
<!-- IndexGestionesComponent&#45;&gt;GestionesModule -->
<g id="edge1" class="edge">
<title>IndexGestionesComponent&#45;&gt;GestionesModule</title>
<path fill="none" stroke="black" d="M402.59,-122.11C402.59,-122.11 402.59,-140.99 402.59,-140.99"/>
<polygon fill="black" stroke="black" points="399.09,-140.99 402.59,-150.99 406.09,-140.99 399.09,-140.99"/>
</g>
<!-- PresupuestosComponent -->
<g id="node2" class="node">
<title>PresupuestosComponent</title>
<polygon fill="#ffffb3" stroke="black" points="359.43,-122 204.57,-122 204.57,-86 359.43,-86 359.43,-122"/>
<text text-anchor="middle" x="282" y="-99.8" font-family="Times,serif" font-size="14.00">PresupuestosComponent</text>
</g>
<!-- PresupuestosComponent&#45;&gt;GestionesModule -->
<g id="edge2" class="edge">
<title>PresupuestosComponent&#45;&gt;GestionesModule</title>
<path fill="none" stroke="black" d="M336.42,-122.11C336.42,-122.11 336.42,-140.99 336.42,-140.99"/>
<polygon fill="black" stroke="black" points="332.92,-140.99 336.42,-150.99 339.92,-140.99 332.92,-140.99"/>
</g>
<!-- TramitesSaludComponent -->
<g id="node3" class="node">
<title>TramitesSaludComponent</title>
<polygon fill="#ffffb3" stroke="black" points="186.48,-122 23.52,-122 23.52,-86 186.48,-86 186.48,-122"/>
<text text-anchor="middle" x="105" y="-99.8" font-family="Times,serif" font-size="14.00">TramitesSaludComponent</text>
</g>
<!-- TramitesSaludComponent&#45;&gt;GestionesModule -->
<g id="edge3" class="edge">
<title>TramitesSaludComponent&#45;&gt;GestionesModule</title>
<path fill="none" stroke="black" d="M105,-122.11C105,-141.34 105,-169 105,-169 105,-169 303.61,-169 303.61,-169"/>
<polygon fill="black" stroke="black" points="303.61,-172.5 313.61,-169 303.61,-165.5 303.61,-172.5"/>
</g>
<!-- SharedModule -->
<g id="node5" class="node">
<title>SharedModule</title>
<polygon fill="#8dd3c7" stroke="black" points="667.42,-122 664.42,-126 643.42,-126 640.42,-122 568.58,-122 568.58,-86 667.42,-86 667.42,-122"/>
<text text-anchor="middle" x="618" y="-99.8" font-family="Times,serif" font-size="14.00">SharedModule</text>
</g>
<!-- SharedModule&#45;&gt;GestionesModule -->
<g id="edge4" class="edge">
<title>SharedModule&#45;&gt;GestionesModule</title>
<path fill="none" stroke="black" d="M618,-122.11C618,-141.34 618,-169 618,-169 618,-169 438.29,-169 438.29,-169"/>
<polygon fill="black" stroke="black" points="438.29,-165.5 428.29,-169 438.29,-172.5 438.29,-165.5"/>
</g>
</g>
</svg>
