<?xml version="1.0" encoding="UTF-8" standalone="no"?>
<!DOCTYPE svg PUBLIC "-//W3C//DTD SVG 1.1//EN"
 "http://www.w3.org/Graphics/SVG/1.1/DTD/svg11.dtd">
<!-- Generated by graphviz version 2.47.0 (20210316.0004)
 -->
<!-- Title: dependencies Pages: 1 -->
<svg width="2323pt" height="284pt"
 viewBox="0.00 0.00 2323.00 284.00" xmlns="http://www.w3.org/2000/svg" xmlns:xlink="http://www.w3.org/1999/xlink">
<g id="graph0" class="graph" transform="scale(1 1) rotate(0) translate(4 280)">
<title>dependencies</title>
<polygon fill="white" stroke="transparent" points="-4,4 -4,-280 2319,-280 2319,4 -4,4"/>
<text text-anchor="start" x="1136.51" y="-42.4" font-family="Times-12" font-weight="bold" font-size="14.00">Legend</text>
<polygon fill="#ffffb3" stroke="transparent" points="923.5,-10 923.5,-30 943.5,-30 943.5,-10 923.5,-10"/>
<text text-anchor="start" x="947.13" y="-15.4" font-family="Times-12" font-size="14.00"> &#160;Declarations</text>
<polygon fill="#8dd3c7" stroke="transparent" points="1036.5,-10 1036.5,-30 1056.5,-30 1056.5,-10 1036.5,-10"/>
<text text-anchor="start" x="1060.23" y="-15.4" font-family="Times-12" font-size="14.00"> &#160;Module</text>
<polygon fill="#80b1d3" stroke="transparent" points="1122.5,-10 1122.5,-30 1142.5,-30 1142.5,-10 1122.5,-10"/>
<text text-anchor="start" x="1146.28" y="-15.4" font-family="Times-12" font-size="14.00"> &#160;Bootstrap</text>
<polygon fill="#fdb462" stroke="transparent" points="1219.5,-10 1219.5,-30 1239.5,-30 1239.5,-10 1219.5,-10"/>
<text text-anchor="start" x="1243.17" y="-15.4" font-family="Times-12" font-size="14.00"> &#160;Providers</text>
<polygon fill="#fb8072" stroke="transparent" points="1315.5,-10 1315.5,-30 1335.5,-30 1335.5,-10 1315.5,-10"/>
<text text-anchor="start" x="1339.23" y="-15.4" font-family="Times-12" font-size="14.00"> &#160;Exports</text>
<g id="clust1" class="cluster">
<title>cluster_AppModule</title>
<polygon fill="none" stroke="black" stroke-dasharray="1,5" points="8,-70 8,-268 2307,-268 2307,-70 8,-70"/>
</g>
<g id="clust14" class="cluster">
<title>cluster_AppModule_bootstrap</title>
<polygon fill="none" stroke="black" points="1250,-208 1250,-260 1374,-260 1374,-208 1250,-208"/>
</g>
<g id="clust12" class="cluster">
<title>cluster_AppModule_imports</title>
<polygon fill="none" stroke="black" points="1527,-78 1527,-130 2299,-130 2299,-78 1527,-78"/>
</g>
<g id="clust2" class="cluster">
<title>cluster_AppModule_declarations</title>
<polygon fill="none" stroke="black" points="16,-78 16,-130 1519,-130 1519,-78 16,-78"/>
</g>
<!-- AppComponent -->
<g id="node1" class="node">
<title>AppComponent</title>
<polygon fill="#ffffb3" stroke="black" points="1510.94,-122 1405.06,-122 1405.06,-86 1510.94,-86 1510.94,-122"/>
<text text-anchor="middle" x="1458" y="-99.8" font-family="Times,serif" font-size="14.00">AppComponent</text>
</g>
<!-- AppModule -->
<g id="node10" class="node">
<title>AppModule</title>
<polygon fill="#8dd3c7" stroke="black" points="1353.66,-187 1350.66,-191 1329.66,-191 1326.66,-187 1270.34,-187 1270.34,-151 1353.66,-151 1353.66,-187"/>
<text text-anchor="middle" x="1312" y="-164.8" font-family="Times,serif" font-size="14.00">AppModule</text>
</g>
<!-- AppComponent&#45;&gt;AppModule -->
<g id="edge1" class="edge">
<title>AppComponent&#45;&gt;AppModule</title>
<path fill="none" stroke="black" d="M1458,-122.19C1458,-137.18 1458,-156 1458,-156 1458,-156 1363.84,-156 1363.84,-156"/>
<polygon fill="black" stroke="black" points="1363.84,-152.5 1353.84,-156 1363.84,-159.5 1363.84,-152.5"/>
</g>
<!-- AuthHeaderComponent -->
<g id="node2" class="node">
<title>AuthHeaderComponent</title>
<polygon fill="#ffffb3" stroke="black" points="1386.74,-122 1237.26,-122 1237.26,-86 1386.74,-86 1386.74,-122"/>
<text text-anchor="middle" x="1312" y="-99.8" font-family="Times,serif" font-size="14.00">AuthHeaderComponent</text>
</g>
<!-- AuthHeaderComponent&#45;&gt;AppModule -->
<g id="edge2" class="edge">
<title>AuthHeaderComponent&#45;&gt;AppModule</title>
<path fill="none" stroke="black" d="M1312,-122.11C1312,-122.11 1312,-140.99 1312,-140.99"/>
<polygon fill="black" stroke="black" points="1308.5,-140.99 1312,-150.99 1315.5,-140.99 1308.5,-140.99"/>
</g>
<!-- AuthPageViewComponent -->
<g id="node3" class="node">
<title>AuthPageViewComponent</title>
<polygon fill="#ffffb3" stroke="black" points="1219.36,-122 1052.64,-122 1052.64,-86 1219.36,-86 1219.36,-122"/>
<text text-anchor="middle" x="1136" y="-99.8" font-family="Times,serif" font-size="14.00">AuthPageViewComponent</text>
</g>
<!-- AuthPageViewComponent&#45;&gt;AppModule -->
<g id="edge3" class="edge">
<title>AuthPageViewComponent&#45;&gt;AppModule</title>
<path fill="none" stroke="black" d="M1136,-122.19C1136,-137.18 1136,-156 1136,-156 1136,-156 1260.29,-156 1260.29,-156"/>
<polygon fill="black" stroke="black" points="1260.29,-159.5 1270.29,-156 1260.29,-152.5 1260.29,-159.5"/>
</g>
<!-- AuthfooterComponent -->
<g id="node4" class="node">
<title>AuthfooterComponent</title>
<polygon fill="#ffffb3" stroke="black" points="1034.26,-122 891.74,-122 891.74,-86 1034.26,-86 1034.26,-122"/>
<text text-anchor="middle" x="963" y="-99.8" font-family="Times,serif" font-size="14.00">AuthfooterComponent</text>
</g>
<!-- AuthfooterComponent&#45;&gt;AppModule -->
<g id="edge4" class="edge">
<title>AuthfooterComponent&#45;&gt;AppModule</title>
<path fill="none" stroke="black" d="M963,-122.03C963,-138.4 963,-160 963,-160 963,-160 1260.25,-160 1260.25,-160"/>
<polygon fill="black" stroke="black" points="1260.25,-163.5 1270.25,-160 1260.25,-156.5 1260.25,-163.5"/>
</g>
<!-- Error400Component -->
<g id="node5" class="node">
<title>Error400Component</title>
<polygon fill="#ffffb3" stroke="black" points="873.87,-122 742.13,-122 742.13,-86 873.87,-86 873.87,-122"/>
<text text-anchor="middle" x="808" y="-99.8" font-family="Times,serif" font-size="14.00">Error400Component</text>
</g>
<!-- Error400Component&#45;&gt;AppModule -->
<g id="edge5" class="edge">
<title>Error400Component&#45;&gt;AppModule</title>
<path fill="none" stroke="black" d="M808,-122.3C808,-140.27 808,-165 808,-165 808,-165 1260.33,-165 1260.33,-165"/>
<polygon fill="black" stroke="black" points="1260.33,-168.5 1270.33,-165 1260.33,-161.5 1260.33,-168.5"/>
</g>
<!-- Error404Component -->
<g id="node6" class="node">
<title>Error404Component</title>
<polygon fill="#ffffb3" stroke="black" points="723.87,-122 592.13,-122 592.13,-86 723.87,-86 723.87,-122"/>
<text text-anchor="middle" x="658" y="-99.8" font-family="Times,serif" font-size="14.00">Error404Component</text>
</g>
<!-- Error404Component&#45;&gt;AppModule -->
<g id="edge6" class="edge">
<title>Error404Component&#45;&gt;AppModule</title>
<path fill="none" stroke="black" d="M658,-122.11C658,-141.34 658,-169 658,-169 658,-169 1260.09,-169 1260.09,-169"/>
<polygon fill="black" stroke="black" points="1260.09,-172.5 1270.09,-169 1260.09,-165.5 1260.09,-172.5"/>
</g>
<!-- Error500Component -->
<g id="node7" class="node">
<title>Error500Component</title>
<polygon fill="#ffffb3" stroke="black" points="573.87,-122 442.13,-122 442.13,-86 573.87,-86 573.87,-122"/>
<text text-anchor="middle" x="508" y="-99.8" font-family="Times,serif" font-size="14.00">Error500Component</text>
</g>
<!-- Error500Component&#45;&gt;AppModule -->
<g id="edge7" class="edge">
<title>Error500Component&#45;&gt;AppModule</title>
<path fill="none" stroke="black" d="M508,-122.03C508,-142.77 508,-174 508,-174 508,-174 1260.19,-174 1260.19,-174"/>
<polygon fill="black" stroke="black" points="1260.19,-177.5 1270.19,-174 1260.19,-170.5 1260.19,-177.5"/>
</g>
<!-- ForgotPasswordModalComponent -->
<g id="node8" class="node">
<title>ForgotPasswordModalComponent</title>
<polygon fill="#ffffb3" stroke="black" points="424.37,-122 215.63,-122 215.63,-86 424.37,-86 424.37,-122"/>
<text text-anchor="middle" x="320" y="-99.8" font-family="Times,serif" font-size="14.00">ForgotPasswordModalComponent</text>
</g>
<!-- ForgotPasswordModalComponent&#45;&gt;AppModule -->
<g id="edge8" class="edge">
<title>ForgotPasswordModalComponent&#45;&gt;AppModule</title>
<path fill="none" stroke="black" d="M320,-122.29C320,-144.21 320,-178 320,-178 320,-178 1260.32,-178 1260.32,-178"/>
<polygon fill="black" stroke="black" points="1260.32,-181.5 1270.32,-178 1260.32,-174.5 1260.32,-181.5"/>
</g>
<!-- HomePageViewComponent -->
<g id="node9" class="node">
<title>HomePageViewComponent</title>
<polygon fill="#ffffb3" stroke="black" points="197.57,-122 24.43,-122 24.43,-86 197.57,-86 197.57,-122"/>
<text text-anchor="middle" x="111" y="-99.8" font-family="Times,serif" font-size="14.00">HomePageViewComponent</text>
</g>
<!-- HomePageViewComponent&#45;&gt;AppModule -->
<g id="edge9" class="edge">
<title>HomePageViewComponent&#45;&gt;AppModule</title>
<path fill="none" stroke="black" d="M111,-122.32C111,-145.66 111,-183 111,-183 111,-183 1260.31,-183 1260.31,-183"/>
<polygon fill="black" stroke="black" points="1260.31,-186.5 1270.31,-183 1260.31,-179.5 1260.31,-186.5"/>
</g>
<!-- AppComponent  -->
<g id="node17" class="node">
<title>AppComponent </title>
<polygon fill="#80b1d3" stroke="black" points="1366.44,-252 1257.56,-252 1257.56,-216 1366.44,-216 1366.44,-252"/>
<text text-anchor="middle" x="1312" y="-229.8" font-family="Times,serif" font-size="14.00">AppComponent </text>
</g>
<!-- AppModule&#45;&gt;AppComponent  -->
<g id="edge16" class="edge">
<title>AppModule&#45;&gt;AppComponent </title>
<path fill="none" stroke="black" stroke-dasharray="1,5" d="M1312,-187.11C1312,-187.11 1312,-205.99 1312,-205.99"/>
<polygon fill="black" stroke="black" points="1308.5,-205.99 1312,-215.99 1315.5,-205.99 1308.5,-205.99"/>
</g>
<!-- AboutModule -->
<g id="node11" class="node">
<title>AboutModule</title>
<polygon fill="#8dd3c7" stroke="black" points="2291.05,-122 2288.05,-126 2267.05,-126 2264.05,-122 2196.95,-122 2196.95,-86 2291.05,-86 2291.05,-122"/>
<text text-anchor="middle" x="2244" y="-99.8" font-family="Times,serif" font-size="14.00">AboutModule</text>
</g>
<!-- AboutModule&#45;&gt;AppModule -->
<g id="edge10" class="edge">
<title>AboutModule&#45;&gt;AppModule</title>
<path fill="none" stroke="black" d="M2244,-122.32C2244,-145.66 2244,-183 2244,-183 2244,-183 1363.86,-183 1363.86,-183"/>
<polygon fill="black" stroke="black" points="1363.86,-179.5 1353.86,-183 1363.86,-186.5 1363.86,-179.5"/>
</g>
<!-- AppRoutingModule -->
<g id="node12" class="node">
<title>AppRoutingModule</title>
<polygon fill="#8dd3c7" stroke="black" points="2178.27,-122 2175.27,-126 2154.27,-126 2151.27,-122 2049.73,-122 2049.73,-86 2178.27,-86 2178.27,-122"/>
<text text-anchor="middle" x="2114" y="-99.8" font-family="Times,serif" font-size="14.00">AppRoutingModule</text>
</g>
<!-- AppRoutingModule&#45;&gt;AppModule -->
<g id="edge11" class="edge">
<title>AppRoutingModule&#45;&gt;AppModule</title>
<path fill="none" stroke="black" d="M2114,-122.29C2114,-144.21 2114,-178 2114,-178 2114,-178 1363.71,-178 1363.71,-178"/>
<polygon fill="black" stroke="black" points="1363.71,-174.5 1353.71,-178 1363.71,-181.5 1363.71,-174.5"/>
</g>
<!-- GestionesModule -->
<g id="node13" class="node">
<title>GestionesModule</title>
<polygon fill="#8dd3c7" stroke="black" points="2031.26,-122 2028.26,-126 2007.26,-126 2004.26,-122 1916.74,-122 1916.74,-86 2031.26,-86 2031.26,-122"/>
<text text-anchor="middle" x="1974" y="-99.8" font-family="Times,serif" font-size="14.00">GestionesModule</text>
</g>
<!-- GestionesModule&#45;&gt;AppModule -->
<g id="edge12" class="edge">
<title>GestionesModule&#45;&gt;AppModule</title>
<path fill="none" stroke="black" d="M1974,-122.03C1974,-142.77 1974,-174 1974,-174 1974,-174 1363.66,-174 1363.66,-174"/>
<polygon fill="black" stroke="black" points="1363.66,-170.5 1353.66,-174 1363.66,-177.5 1363.66,-170.5"/>
</g>
<!-- ServiciosModule -->
<g id="node14" class="node">
<title>ServiciosModule</title>
<polygon fill="#8dd3c7" stroke="black" points="1898.65,-122 1895.65,-126 1874.65,-126 1871.65,-122 1787.35,-122 1787.35,-86 1898.65,-86 1898.65,-122"/>
<text text-anchor="middle" x="1843" y="-99.8" font-family="Times,serif" font-size="14.00">ServiciosModule</text>
</g>
<!-- ServiciosModule&#45;&gt;AppModule -->
<g id="edge13" class="edge">
<title>ServiciosModule&#45;&gt;AppModule</title>
<path fill="none" stroke="black" d="M1843,-122.11C1843,-141.34 1843,-169 1843,-169 1843,-169 1363.67,-169 1363.67,-169"/>
<polygon fill="black" stroke="black" points="1363.67,-165.5 1353.67,-169 1363.67,-172.5 1363.67,-165.5"/>
</g>
<!-- SharedModule -->
<g id="node15" class="node">
<title>SharedModule</title>
<polygon fill="#8dd3c7" stroke="black" points="1769.42,-122 1766.42,-126 1745.42,-126 1742.42,-122 1670.58,-122 1670.58,-86 1769.42,-86 1769.42,-122"/>
<text text-anchor="middle" x="1720" y="-99.8" font-family="Times,serif" font-size="14.00">SharedModule</text>
</g>
<!-- SharedModule&#45;&gt;AppModule -->
<g id="edge14" class="edge">
<title>SharedModule&#45;&gt;AppModule</title>
<path fill="none" stroke="black" d="M1720,-122.3C1720,-140.27 1720,-165 1720,-165 1720,-165 1363.75,-165 1363.75,-165"/>
<polygon fill="black" stroke="black" points="1363.75,-161.5 1353.75,-165 1363.75,-168.5 1363.75,-161.5"/>
</g>
<!-- SimuladorModule -->
<g id="node16" class="node">
<title>SimuladorModule</title>
<polygon fill="#8dd3c7" stroke="black" points="1652.88,-122 1649.88,-126 1628.88,-126 1625.88,-122 1535.12,-122 1535.12,-86 1652.88,-86 1652.88,-122"/>
<text text-anchor="middle" x="1594" y="-99.8" font-family="Times,serif" font-size="14.00">SimuladorModule</text>
</g>
<!-- SimuladorModule&#45;&gt;AppModule -->
<g id="edge15" class="edge">
<title>SimuladorModule&#45;&gt;AppModule</title>
<path fill="none" stroke="black" d="M1594,-122.03C1594,-138.4 1594,-160 1594,-160 1594,-160 1363.91,-160 1363.91,-160"/>
<polygon fill="black" stroke="black" points="1363.91,-156.5 1353.91,-160 1363.91,-163.5 1363.91,-156.5"/>
</g>
</g>
</svg>
