<?xml version="1.0" encoding="UTF-8" standalone="no"?>
<!DOCTYPE svg PUBLIC "-//W3C//DTD SVG 1.1//EN"
 "http://www.w3.org/Graphics/SVG/1.1/DTD/svg11.dtd">
<!-- Generated by graphviz version 2.47.0 (20210316.0004)
 -->
<!-- Title: dependencies Pages: 1 -->
<svg width="1658pt" height="284pt"
 viewBox="0.00 0.00 1658.00 284.00" xmlns="http://www.w3.org/2000/svg" xmlns:xlink="http://www.w3.org/1999/xlink">
<g id="graph0" class="graph" transform="scale(1 1) rotate(0) translate(4 280)">
<title>dependencies</title>
<polygon fill="white" stroke="transparent" points="-4,4 -4,-280 1654,-280 1654,4 -4,4"/>
<text text-anchor="start" x="804.01" y="-42.4" font-family="Times-12" font-weight="bold" font-size="14.00">Legend</text>
<polygon fill="#ffffb3" stroke="transparent" points="591,-10 591,-30 611,-30 611,-10 591,-10"/>
<text text-anchor="start" x="614.63" y="-15.4" font-family="Times-12" font-size="14.00"> &#160;Declarations</text>
<polygon fill="#8dd3c7" stroke="transparent" points="704,-10 704,-30 724,-30 724,-10 704,-10"/>
<text text-anchor="start" x="727.73" y="-15.4" font-family="Times-12" font-size="14.00"> &#160;Module</text>
<polygon fill="#80b1d3" stroke="transparent" points="790,-10 790,-30 810,-30 810,-10 790,-10"/>
<text text-anchor="start" x="813.78" y="-15.4" font-family="Times-12" font-size="14.00"> &#160;Bootstrap</text>
<polygon fill="#fdb462" stroke="transparent" points="887,-10 887,-30 907,-30 907,-10 887,-10"/>
<text text-anchor="start" x="910.67" y="-15.4" font-family="Times-12" font-size="14.00"> &#160;Providers</text>
<polygon fill="#fb8072" stroke="transparent" points="983,-10 983,-30 1003,-30 1003,-10 983,-10"/>
<text text-anchor="start" x="1006.73" y="-15.4" font-family="Times-12" font-size="14.00"> &#160;Exports</text>
<g id="clust1" class="cluster">
<title>cluster_AppModule</title>
<polygon fill="none" stroke="black" stroke-dasharray="1,5" points="8,-70 8,-268 1642,-268 1642,-70 8,-70"/>
</g>
<g id="clust14" class="cluster">
<title>cluster_AppModule_bootstrap</title>
<polygon fill="none" stroke="black" points="790,-208 790,-260 914,-260 914,-208 790,-208"/>
</g>
<g id="clust12" class="cluster">
<title>cluster_AppModule_imports</title>
<polygon fill="none" stroke="black" points="1490,-78 1490,-130 1634,-130 1634,-78 1490,-78"/>
</g>
<g id="clust2" class="cluster">
<title>cluster_AppModule_declarations</title>
<polygon fill="none" stroke="black" points="16,-78 16,-130 1482,-130 1482,-78 16,-78"/>
</g>
<!-- AppComponent -->
<g id="node1" class="node">
<title>AppComponent</title>
<polygon fill="#ffffb3" stroke="black" points="1473.94,-122 1368.06,-122 1368.06,-86 1473.94,-86 1473.94,-122"/>
<text text-anchor="middle" x="1421" y="-99.8" font-family="Times,serif" font-size="14.00">AppComponent</text>
</g>
<!-- AppModule -->
<g id="node10" class="node">
<title>AppModule</title>
<polygon fill="#8dd3c7" stroke="black" points="893.66,-187 890.66,-191 869.66,-191 866.66,-187 810.34,-187 810.34,-151 893.66,-151 893.66,-187"/>
<text text-anchor="middle" x="852" y="-164.8" font-family="Times,serif" font-size="14.00">AppModule</text>
</g>
<!-- AppComponent&#45;&gt;AppModule -->
<g id="edge1" class="edge">
<title>AppComponent&#45;&gt;AppModule</title>
<path fill="none" stroke="black" d="M1421,-122.13C1421,-142.57 1421,-173 1421,-173 1421,-173 903.84,-173 903.84,-173"/>
<polygon fill="black" stroke="black" points="903.84,-169.5 893.84,-173 903.84,-176.5 903.84,-169.5"/>
</g>
<!-- AuthHeaderComponent -->
<g id="node2" class="node">
<title>AuthHeaderComponent</title>
<polygon fill="#ffffb3" stroke="black" points="1349.74,-122 1200.26,-122 1200.26,-86 1349.74,-86 1349.74,-122"/>
<text text-anchor="middle" x="1275" y="-99.8" font-family="Times,serif" font-size="14.00">AuthHeaderComponent</text>
</g>
<!-- AuthHeaderComponent&#45;&gt;AppModule -->
<g id="edge2" class="edge">
<title>AuthHeaderComponent&#45;&gt;AppModule</title>
<path fill="none" stroke="black" d="M1275,-122.27C1275,-140.56 1275,-166 1275,-166 1275,-166 903.72,-166 903.72,-166"/>
<polygon fill="black" stroke="black" points="903.72,-162.5 893.72,-166 903.72,-169.5 903.72,-162.5"/>
</g>
<!-- AuthPageViewComponent -->
<g id="node3" class="node">
<title>AuthPageViewComponent</title>
<polygon fill="#ffffb3" stroke="black" points="1182.36,-122 1015.64,-122 1015.64,-86 1182.36,-86 1182.36,-122"/>
<text text-anchor="middle" x="1099" y="-99.8" font-family="Times,serif" font-size="14.00">AuthPageViewComponent</text>
</g>
<!-- AuthPageViewComponent&#45;&gt;AppModule -->
<g id="edge3" class="edge">
<title>AuthPageViewComponent&#45;&gt;AppModule</title>
<path fill="none" stroke="black" d="M1099,-122.01C1099,-138.05 1099,-159 1099,-159 1099,-159 903.9,-159 903.9,-159"/>
<polygon fill="black" stroke="black" points="903.9,-155.5 893.9,-159 903.9,-162.5 903.9,-155.5"/>
</g>
<!-- AuthfooterComponent -->
<g id="node4" class="node">
<title>AuthfooterComponent</title>
<polygon fill="#ffffb3" stroke="black" points="997.26,-122 854.74,-122 854.74,-86 997.26,-86 997.26,-122"/>
<text text-anchor="middle" x="926" y="-99.8" font-family="Times,serif" font-size="14.00">AuthfooterComponent</text>
</g>
<!-- AuthfooterComponent&#45;&gt;AppModule -->
<g id="edge4" class="edge">
<title>AuthfooterComponent&#45;&gt;AppModule</title>
<path fill="none" stroke="black" d="M874.23,-122.11C874.23,-122.11 874.23,-140.99 874.23,-140.99"/>
<polygon fill="black" stroke="black" points="870.73,-140.99 874.23,-150.99 877.73,-140.99 870.73,-140.99"/>
</g>
<!-- FooterComponent -->
<g id="node5" class="node">
<title>FooterComponent</title>
<polygon fill="#ffffb3" stroke="black" points="836.88,-122 719.12,-122 719.12,-86 836.88,-86 836.88,-122"/>
<text text-anchor="middle" x="778" y="-99.8" font-family="Times,serif" font-size="14.00">FooterComponent</text>
</g>
<!-- FooterComponent&#45;&gt;AppModule -->
<g id="edge5" class="edge">
<title>FooterComponent&#45;&gt;AppModule</title>
<path fill="none" stroke="black" d="M823.56,-122.11C823.56,-122.11 823.56,-140.99 823.56,-140.99"/>
<polygon fill="black" stroke="black" points="820.06,-140.99 823.56,-150.99 827.06,-140.99 820.06,-140.99"/>
</g>
<!-- ForgotPasswordModalComponent -->
<g id="node6" class="node">
<title>ForgotPasswordModalComponent</title>
<polygon fill="#ffffb3" stroke="black" points="701.37,-122 492.63,-122 492.63,-86 701.37,-86 701.37,-122"/>
<text text-anchor="middle" x="597" y="-99.8" font-family="Times,serif" font-size="14.00">ForgotPasswordModalComponent</text>
</g>
<!-- ForgotPasswordModalComponent&#45;&gt;AppModule -->
<g id="edge6" class="edge">
<title>ForgotPasswordModalComponent&#45;&gt;AppModule</title>
<path fill="none" stroke="black" d="M597,-122.01C597,-138.05 597,-159 597,-159 597,-159 800.18,-159 800.18,-159"/>
<polygon fill="black" stroke="black" points="800.18,-162.5 810.18,-159 800.18,-155.5 800.18,-162.5"/>
</g>
<!-- HeaderComponent -->
<g id="node7" class="node">
<title>HeaderComponent</title>
<polygon fill="#ffffb3" stroke="black" points="474.74,-122 353.26,-122 353.26,-86 474.74,-86 474.74,-122"/>
<text text-anchor="middle" x="414" y="-99.8" font-family="Times,serif" font-size="14.00">HeaderComponent</text>
</g>
<!-- HeaderComponent&#45;&gt;AppModule -->
<g id="edge7" class="edge">
<title>HeaderComponent&#45;&gt;AppModule</title>
<path fill="none" stroke="black" d="M414,-122.27C414,-140.56 414,-166 414,-166 414,-166 800,-166 800,-166"/>
<polygon fill="black" stroke="black" points="800,-169.5 810,-166 800,-162.5 800,-169.5"/>
</g>
<!-- HomePageViewComponent -->
<g id="node8" class="node">
<title>HomePageViewComponent</title>
<polygon fill="#ffffb3" stroke="black" points="335.57,-122 162.43,-122 162.43,-86 335.57,-86 335.57,-122"/>
<text text-anchor="middle" x="249" y="-99.8" font-family="Times,serif" font-size="14.00">HomePageViewComponent</text>
</g>
<!-- HomePageViewComponent&#45;&gt;AppModule -->
<g id="edge8" class="edge">
<title>HomePageViewComponent&#45;&gt;AppModule</title>
<path fill="none" stroke="black" d="M249,-122.13C249,-142.57 249,-173 249,-173 249,-173 800.08,-173 800.08,-173"/>
<polygon fill="black" stroke="black" points="800.08,-176.5 810.08,-173 800.08,-169.5 800.08,-176.5"/>
</g>
<!-- LayoutComponent -->
<g id="node9" class="node">
<title>LayoutComponent</title>
<polygon fill="#ffffb3" stroke="black" points="144.49,-122 23.51,-122 23.51,-86 144.49,-86 144.49,-122"/>
<text text-anchor="middle" x="84" y="-99.8" font-family="Times,serif" font-size="14.00">LayoutComponent</text>
</g>
<!-- LayoutComponent&#45;&gt;AppModule -->
<g id="edge9" class="edge">
<title>LayoutComponent&#45;&gt;AppModule</title>
<path fill="none" stroke="black" d="M84,-122.01C84,-144.49 84,-180 84,-180 84,-180 800.16,-180 800.16,-180"/>
<polygon fill="black" stroke="black" points="800.16,-183.5 810.16,-180 800.16,-176.5 800.16,-183.5"/>
</g>
<!-- AppComponent  -->
<g id="node12" class="node">
<title>AppComponent </title>
<polygon fill="#80b1d3" stroke="black" points="906.44,-252 797.56,-252 797.56,-216 906.44,-216 906.44,-252"/>
<text text-anchor="middle" x="852" y="-229.8" font-family="Times,serif" font-size="14.00">AppComponent </text>
</g>
<!-- AppModule&#45;&gt;AppComponent  -->
<g id="edge11" class="edge">
<title>AppModule&#45;&gt;AppComponent </title>
<path fill="none" stroke="black" stroke-dasharray="1,5" d="M852,-187.11C852,-187.11 852,-205.99 852,-205.99"/>
<polygon fill="black" stroke="black" points="848.5,-205.99 852,-215.99 855.5,-205.99 848.5,-205.99"/>
</g>
<!-- AppRoutingModule -->
<g id="node11" class="node">
<title>AppRoutingModule</title>
<polygon fill="#8dd3c7" stroke="black" points="1626.27,-122 1623.27,-126 1602.27,-126 1599.27,-122 1497.73,-122 1497.73,-86 1626.27,-86 1626.27,-122"/>
<text text-anchor="middle" x="1562" y="-99.8" font-family="Times,serif" font-size="14.00">AppRoutingModule</text>
</g>
<!-- AppRoutingModule&#45;&gt;AppModule -->
<g id="edge10" class="edge">
<title>AppRoutingModule&#45;&gt;AppModule</title>
<path fill="none" stroke="black" d="M1562,-122.01C1562,-144.49 1562,-180 1562,-180 1562,-180 903.76,-180 903.76,-180"/>
<polygon fill="black" stroke="black" points="903.76,-176.5 893.76,-180 903.76,-183.5 903.76,-176.5"/>
</g>
</g>
</svg>
