<?xml version="1.0" encoding="UTF-8" standalone="no"?>
<!DOCTYPE svg PUBLIC "-//W3C//DTD SVG 1.1//EN"
 "http://www.w3.org/Graphics/SVG/1.1/DTD/svg11.dtd">
<!-- Generated by graphviz version 2.47.0 (20210316.0004)
 -->
<!-- Title: dependencies Pages: 1 -->
<svg width="917pt" height="211pt"
 viewBox="0.00 0.00 917.00 211.00" xmlns="http://www.w3.org/2000/svg" xmlns:xlink="http://www.w3.org/1999/xlink">
<g id="graph0" class="graph" transform="scale(1 1) rotate(0) translate(4 207)">
<title>dependencies</title>
<polygon fill="white" stroke="transparent" points="-4,4 -4,-207 913,-207 913,4 -4,4"/>
<text text-anchor="start" x="433.51" y="-42.4" font-family="Times-12" font-weight="bold" font-size="14.00">Legend</text>
<polygon fill="#ffffb3" stroke="transparent" points="220.5,-10 220.5,-30 240.5,-30 240.5,-10 220.5,-10"/>
<text text-anchor="start" x="244.13" y="-15.4" font-family="Times-12" font-size="14.00"> &#160;Declarations</text>
<polygon fill="#8dd3c7" stroke="transparent" points="333.5,-10 333.5,-30 353.5,-30 353.5,-10 333.5,-10"/>
<text text-anchor="start" x="357.23" y="-15.4" font-family="Times-12" font-size="14.00"> &#160;Module</text>
<polygon fill="#80b1d3" stroke="transparent" points="419.5,-10 419.5,-30 439.5,-30 439.5,-10 419.5,-10"/>
<text text-anchor="start" x="443.28" y="-15.4" font-family="Times-12" font-size="14.00"> &#160;Bootstrap</text>
<polygon fill="#fdb462" stroke="transparent" points="516.5,-10 516.5,-30 536.5,-30 536.5,-10 516.5,-10"/>
<text text-anchor="start" x="540.17" y="-15.4" font-family="Times-12" font-size="14.00"> &#160;Providers</text>
<polygon fill="#fb8072" stroke="transparent" points="612.5,-10 612.5,-30 632.5,-30 632.5,-10 612.5,-10"/>
<text text-anchor="start" x="636.23" y="-15.4" font-family="Times-12" font-size="14.00"> &#160;Exports</text>
<g id="clust1" class="cluster">
<title>cluster_AboutModule</title>
<polygon fill="none" stroke="black" stroke-dasharray="1,5" points="8,-70 8,-195 901,-195 901,-70 8,-70"/>
</g>
<g id="clust8" class="cluster">
<title>cluster_AboutModule_imports</title>
<polygon fill="none" stroke="black" points="779,-78 779,-130 893,-130 893,-78 779,-78"/>
</g>
<g id="clust2" class="cluster">
<title>cluster_AboutModule_declarations</title>
<polygon fill="none" stroke="black" points="16,-78 16,-130 771,-130 771,-78 16,-78"/>
</g>
<!-- AboutUsComponent -->
<g id="node1" class="node">
<title>AboutUsComponent</title>
<polygon fill="#ffffb3" stroke="black" points="762.88,-122 631.12,-122 631.12,-86 762.88,-86 762.88,-122"/>
<text text-anchor="middle" x="697" y="-99.8" font-family="Times,serif" font-size="14.00">AboutUsComponent</text>
</g>
<!-- AboutModule -->
<g id="node6" class="node">
<title>AboutModule</title>
<polygon fill="#8dd3c7" stroke="black" points="515.05,-187 512.05,-191 491.05,-191 488.05,-187 420.95,-187 420.95,-151 515.05,-151 515.05,-187"/>
<text text-anchor="middle" x="468" y="-164.8" font-family="Times,serif" font-size="14.00">AboutModule</text>
</g>
<!-- AboutUsComponent&#45;&gt;AboutModule -->
<g id="edge1" class="edge">
<title>AboutUsComponent&#45;&gt;AboutModule</title>
<path fill="none" stroke="black" d="M697,-122.02C697,-139.37 697,-163 697,-163 697,-163 525.17,-163 525.17,-163"/>
<polygon fill="black" stroke="black" points="525.17,-159.5 515.17,-163 525.17,-166.5 525.17,-159.5"/>
</g>
<!-- ContactoComponent -->
<g id="node2" class="node">
<title>ContactoComponent</title>
<polygon fill="#ffffb3" stroke="black" points="612.88,-122 481.12,-122 481.12,-86 612.88,-86 612.88,-122"/>
<text text-anchor="middle" x="547" y="-99.8" font-family="Times,serif" font-size="14.00">ContactoComponent</text>
</g>
<!-- ContactoComponent&#45;&gt;AboutModule -->
<g id="edge2" class="edge">
<title>ContactoComponent&#45;&gt;AboutModule</title>
<path fill="none" stroke="black" d="M498.17,-122.11C498.17,-122.11 498.17,-140.99 498.17,-140.99"/>
<polygon fill="black" stroke="black" points="494.67,-140.99 498.17,-150.99 501.67,-140.99 494.67,-140.99"/>
</g>
<!-- IndexAboutComponent -->
<g id="node3" class="node">
<title>IndexAboutComponent</title>
<polygon fill="#ffffb3" stroke="black" points="463.2,-122 314.8,-122 314.8,-86 463.2,-86 463.2,-122"/>
<text text-anchor="middle" x="389" y="-99.8" font-family="Times,serif" font-size="14.00">IndexAboutComponent</text>
</g>
<!-- IndexAboutComponent&#45;&gt;AboutModule -->
<g id="edge3" class="edge">
<title>IndexAboutComponent&#45;&gt;AboutModule</title>
<path fill="none" stroke="black" d="M441.91,-122.11C441.91,-122.11 441.91,-140.99 441.91,-140.99"/>
<polygon fill="black" stroke="black" points="438.41,-140.99 441.91,-150.99 445.41,-140.99 438.41,-140.99"/>
</g>
<!-- OficinasComponent -->
<g id="node4" class="node">
<title>OficinasComponent</title>
<polygon fill="#ffffb3" stroke="black" points="297.25,-122 168.75,-122 168.75,-86 297.25,-86 297.25,-122"/>
<text text-anchor="middle" x="233" y="-99.8" font-family="Times,serif" font-size="14.00">OficinasComponent</text>
</g>
<!-- OficinasComponent&#45;&gt;AboutModule -->
<g id="edge4" class="edge">
<title>OficinasComponent&#45;&gt;AboutModule</title>
<path fill="none" stroke="black" d="M233,-122.02C233,-139.37 233,-163 233,-163 233,-163 410.73,-163 410.73,-163"/>
<polygon fill="black" stroke="black" points="410.73,-166.5 420.73,-163 410.73,-159.5 410.73,-166.5"/>
</g>
<!-- TalleresComponent -->
<g id="node5" class="node">
<title>TalleresComponent</title>
<polygon fill="#ffffb3" stroke="black" points="150.42,-122 23.58,-122 23.58,-86 150.42,-86 150.42,-122"/>
<text text-anchor="middle" x="87" y="-99.8" font-family="Times,serif" font-size="14.00">TalleresComponent</text>
</g>
<!-- TalleresComponent&#45;&gt;AboutModule -->
<g id="edge5" class="edge">
<title>TalleresComponent&#45;&gt;AboutModule</title>
<path fill="none" stroke="black" d="M87,-122.28C87,-143.32 87,-175 87,-175 87,-175 410.9,-175 410.9,-175"/>
<polygon fill="black" stroke="black" points="410.9,-178.5 420.9,-175 410.9,-171.5 410.9,-178.5"/>
</g>
<!-- SharedModule -->
<g id="node7" class="node">
<title>SharedModule</title>
<polygon fill="#8dd3c7" stroke="black" points="885.42,-122 882.42,-126 861.42,-126 858.42,-122 786.58,-122 786.58,-86 885.42,-86 885.42,-122"/>
<text text-anchor="middle" x="836" y="-99.8" font-family="Times,serif" font-size="14.00">SharedModule</text>
</g>
<!-- SharedModule&#45;&gt;AboutModule -->
<g id="edge6" class="edge">
<title>SharedModule&#45;&gt;AboutModule</title>
<path fill="none" stroke="black" d="M836,-122.28C836,-143.32 836,-175 836,-175 836,-175 525.36,-175 525.36,-175"/>
<polygon fill="black" stroke="black" points="525.36,-171.5 515.36,-175 525.36,-178.5 525.36,-171.5"/>
</g>
</g>
</svg>
