<?xml version="1.0" encoding="UTF-8" standalone="no"?>
<!DOCTYPE svg PUBLIC "-//W3C//DTD SVG 1.1//EN"
 "http://www.w3.org/Graphics/SVG/1.1/DTD/svg11.dtd">
<!-- Generated by graphviz version 2.47.0 (20210316.0004)
 -->
<!-- Title: dependencies Pages: 1 -->
<svg width="1658pt" height="284pt"
 viewBox="0.00 0.00 1658.00 284.00" xmlns="http://www.w3.org/2000/svg" xmlns:xlink="http://www.w3.org/1999/xlink">
<g id="graph0" class="graph" transform="scale(1 1) rotate(0) translate(4 280)">
<title>dependencies</title>
<polygon fill="white" stroke="transparent" points="-4,4 -4,-280 1654,-280 1654,4 -4,4"/>
<text text-anchor="start" x="804.01" y="-42.4" font-family="Times-12" font-weight="bold" font-size="14.00">Legend</text>
<polygon fill="#ffffb3" stroke="transparent" points="591,-10 591,-30 611,-30 611,-10 591,-10"/>
<text text-anchor="start" x="614.63" y="-15.4" font-family="Times-12" font-size="14.00"> &#160;Declarations</text>
<polygon fill="#8dd3c7" stroke="transparent" points="704,-10 704,-30 724,-30 724,-10 704,-10"/>
<text text-anchor="start" x="727.73" y="-15.4" font-family="Times-12" font-size="14.00"> &#160;Module</text>
<polygon fill="#80b1d3" stroke="transparent" points="790,-10 790,-30 810,-30 810,-10 790,-10"/>
<text text-anchor="start" x="813.78" y="-15.4" font-family="Times-12" font-size="14.00"> &#160;Bootstrap</text>
<polygon fill="#fdb462" stroke="transparent" points="887,-10 887,-30 907,-30 907,-10 887,-10"/>
<text text-anchor="start" x="910.67" y="-15.4" font-family="Times-12" font-size="14.00"> &#160;Providers</text>
<polygon fill="#fb8072" stroke="transparent" points="983,-10 983,-30 1003,-30 1003,-10 983,-10"/>
<text text-anchor="start" x="1006.73" y="-15.4" font-family="Times-12" font-size="14.00"> &#160;Exports</text>
<g id="clust1" class="cluster">
<title>cluster_AppModule</title>
<polygon fill="none" stroke="black" stroke-dasharray="1,5" points="8,-70 8,-268 1642,-268 1642,-70 8,-70"/>
</g>
<g id="clust2" class="cluster">
<title>cluster_AppModule_declarations</title>
<polygon fill="none" stroke="black" points="168,-78 168,-130 1634,-130 1634,-78 168,-78"/>
</g>
<g id="clust12" class="cluster">
<title>cluster_AppModule_imports</title>
<polygon fill="none" stroke="black" points="16,-78 16,-130 160,-130 160,-78 16,-78"/>
</g>
<g id="clust14" class="cluster">
<title>cluster_AppModule_bootstrap</title>
<polygon fill="none" stroke="black" points="777,-208 777,-260 901,-260 901,-208 777,-208"/>
</g>
<!-- AppComponent -->
<g id="node1" class="node">
<title>AppComponent</title>
<polygon fill="#ffffb3" stroke="black" points="1625.94,-122 1520.06,-122 1520.06,-86 1625.94,-86 1625.94,-122"/>
<text text-anchor="middle" x="1573" y="-99.8" font-family="Times,serif" font-size="14.00">AppComponent</text>
</g>
<!-- AppModule -->
<g id="node10" class="node">
<title>AppModule</title>
<polygon fill="#8dd3c7" stroke="black" points="880.66,-187 877.66,-191 856.66,-191 853.66,-187 797.34,-187 797.34,-151 880.66,-151 880.66,-187"/>
<text text-anchor="middle" x="839" y="-164.8" font-family="Times,serif" font-size="14.00">AppModule</text>
</g>
<!-- AppComponent&#45;&gt;AppModule -->
<g id="edge1" class="edge">
<title>AppComponent&#45;&gt;AppModule</title>
<path fill="none" stroke="black" d="M1573,-122.01C1573,-144.49 1573,-180 1573,-180 1573,-180 890.83,-180 890.83,-180"/>
<polygon fill="black" stroke="black" points="890.83,-176.5 880.83,-180 890.83,-183.5 890.83,-176.5"/>
</g>
<!-- AuthHeaderComponent -->
<g id="node2" class="node">
<title>AuthHeaderComponent</title>
<polygon fill="#ffffb3" stroke="black" points="1501.74,-122 1352.26,-122 1352.26,-86 1501.74,-86 1501.74,-122"/>
<text text-anchor="middle" x="1427" y="-99.8" font-family="Times,serif" font-size="14.00">AuthHeaderComponent</text>
</g>
<!-- AuthHeaderComponent&#45;&gt;AppModule -->
<g id="edge2" class="edge">
<title>AuthHeaderComponent&#45;&gt;AppModule</title>
<path fill="none" stroke="black" d="M1427,-122.13C1427,-142.57 1427,-173 1427,-173 1427,-173 890.82,-173 890.82,-173"/>
<polygon fill="black" stroke="black" points="890.82,-169.5 880.82,-173 890.82,-176.5 890.82,-169.5"/>
</g>
<!-- AuthPageViewComponent -->
<g id="node3" class="node">
<title>AuthPageViewComponent</title>
<polygon fill="#ffffb3" stroke="black" points="1334.36,-122 1167.64,-122 1167.64,-86 1334.36,-86 1334.36,-122"/>
<text text-anchor="middle" x="1251" y="-99.8" font-family="Times,serif" font-size="14.00">AuthPageViewComponent</text>
</g>
<!-- AuthPageViewComponent&#45;&gt;AppModule -->
<g id="edge3" class="edge">
<title>AuthPageViewComponent&#45;&gt;AppModule</title>
<path fill="none" stroke="black" d="M1251,-122.27C1251,-140.56 1251,-166 1251,-166 1251,-166 890.77,-166 890.77,-166"/>
<polygon fill="black" stroke="black" points="890.77,-162.5 880.77,-166 890.77,-169.5 890.77,-162.5"/>
</g>
<!-- AuthfooterComponent -->
<g id="node4" class="node">
<title>AuthfooterComponent</title>
<polygon fill="#ffffb3" stroke="black" points="1149.26,-122 1006.74,-122 1006.74,-86 1149.26,-86 1149.26,-122"/>
<text text-anchor="middle" x="1078" y="-99.8" font-family="Times,serif" font-size="14.00">AuthfooterComponent</text>
</g>
<!-- AuthfooterComponent&#45;&gt;AppModule -->
<g id="edge4" class="edge">
<title>AuthfooterComponent&#45;&gt;AppModule</title>
<path fill="none" stroke="black" d="M1078,-122.01C1078,-138.05 1078,-159 1078,-159 1078,-159 890.9,-159 890.9,-159"/>
<polygon fill="black" stroke="black" points="890.9,-155.5 880.9,-159 890.9,-162.5 890.9,-155.5"/>
</g>
<!-- FooterComponent -->
<g id="node5" class="node">
<title>FooterComponent</title>
<polygon fill="#ffffb3" stroke="black" points="988.88,-122 871.12,-122 871.12,-86 988.88,-86 988.88,-122"/>
<text text-anchor="middle" x="930" y="-99.8" font-family="Times,serif" font-size="14.00">FooterComponent</text>
</g>
<!-- FooterComponent&#45;&gt;AppModule -->
<g id="edge5" class="edge">
<title>FooterComponent&#45;&gt;AppModule</title>
<path fill="none" stroke="black" d="M875.94,-122.11C875.94,-122.11 875.94,-140.99 875.94,-140.99"/>
<polygon fill="black" stroke="black" points="872.44,-140.99 875.94,-150.99 879.44,-140.99 872.44,-140.99"/>
</g>
<!-- ForgotPasswordModalComponent -->
<g id="node6" class="node">
<title>ForgotPasswordModalComponent</title>
<polygon fill="#ffffb3" stroke="black" points="853.37,-122 644.63,-122 644.63,-86 853.37,-86 853.37,-122"/>
<text text-anchor="middle" x="749" y="-99.8" font-family="Times,serif" font-size="14.00">ForgotPasswordModalComponent</text>
</g>
<!-- ForgotPasswordModalComponent&#45;&gt;AppModule -->
<g id="edge6" class="edge">
<title>ForgotPasswordModalComponent&#45;&gt;AppModule</title>
<path fill="none" stroke="black" d="M825.3,-122.11C825.3,-122.11 825.3,-140.99 825.3,-140.99"/>
<polygon fill="black" stroke="black" points="821.8,-140.99 825.3,-150.99 828.8,-140.99 821.8,-140.99"/>
</g>
<!-- HeaderComponent -->
<g id="node7" class="node">
<title>HeaderComponent</title>
<polygon fill="#ffffb3" stroke="black" points="626.74,-122 505.26,-122 505.26,-86 626.74,-86 626.74,-122"/>
<text text-anchor="middle" x="566" y="-99.8" font-family="Times,serif" font-size="14.00">HeaderComponent</text>
</g>
<!-- HeaderComponent&#45;&gt;AppModule -->
<g id="edge7" class="edge">
<title>HeaderComponent&#45;&gt;AppModule</title>
<path fill="none" stroke="black" d="M566,-122.01C566,-138.05 566,-159 566,-159 566,-159 787.24,-159 787.24,-159"/>
<polygon fill="black" stroke="black" points="787.24,-162.5 797.24,-159 787.24,-155.5 787.24,-162.5"/>
</g>
<!-- HomePageViewComponent -->
<g id="node8" class="node">
<title>HomePageViewComponent</title>
<polygon fill="#ffffb3" stroke="black" points="487.57,-122 314.43,-122 314.43,-86 487.57,-86 487.57,-122"/>
<text text-anchor="middle" x="401" y="-99.8" font-family="Times,serif" font-size="14.00">HomePageViewComponent</text>
</g>
<!-- HomePageViewComponent&#45;&gt;AppModule -->
<g id="edge8" class="edge">
<title>HomePageViewComponent&#45;&gt;AppModule</title>
<path fill="none" stroke="black" d="M401,-122.27C401,-140.56 401,-166 401,-166 401,-166 787,-166 787,-166"/>
<polygon fill="black" stroke="black" points="787,-169.5 797,-166 787,-162.5 787,-169.5"/>
</g>
<!-- LayoutComponent -->
<g id="node9" class="node">
<title>LayoutComponent</title>
<polygon fill="#ffffb3" stroke="black" points="296.49,-122 175.51,-122 175.51,-86 296.49,-86 296.49,-122"/>
<text text-anchor="middle" x="236" y="-99.8" font-family="Times,serif" font-size="14.00">LayoutComponent</text>
</g>
<!-- LayoutComponent&#45;&gt;AppModule -->
<g id="edge9" class="edge">
<title>LayoutComponent&#45;&gt;AppModule</title>
<path fill="none" stroke="black" d="M236,-122.13C236,-142.57 236,-173 236,-173 236,-173 787.08,-173 787.08,-173"/>
<polygon fill="black" stroke="black" points="787.08,-176.5 797.08,-173 787.08,-169.5 787.08,-176.5"/>
</g>
<!-- AppComponent  -->
<g id="node12" class="node">
<title>AppComponent </title>
<polygon fill="#80b1d3" stroke="black" points="893.44,-252 784.56,-252 784.56,-216 893.44,-216 893.44,-252"/>
<text text-anchor="middle" x="839" y="-229.8" font-family="Times,serif" font-size="14.00">AppComponent </text>
</g>
<!-- AppModule&#45;&gt;AppComponent  -->
<g id="edge11" class="edge">
<title>AppModule&#45;&gt;AppComponent </title>
<path fill="none" stroke="black" stroke-dasharray="1,5" d="M839,-187.11C839,-187.11 839,-205.99 839,-205.99"/>
<polygon fill="black" stroke="black" points="835.5,-205.99 839,-215.99 842.5,-205.99 835.5,-205.99"/>
</g>
<!-- AppRoutingModule -->
<g id="node11" class="node">
<title>AppRoutingModule</title>
<polygon fill="#8dd3c7" stroke="black" points="152.27,-122 149.27,-126 128.27,-126 125.27,-122 23.73,-122 23.73,-86 152.27,-86 152.27,-122"/>
<text text-anchor="middle" x="88" y="-99.8" font-family="Times,serif" font-size="14.00">AppRoutingModule</text>
</g>
<!-- AppRoutingModule&#45;&gt;AppModule -->
<g id="edge10" class="edge">
<title>AppRoutingModule&#45;&gt;AppModule</title>
<path fill="none" stroke="black" d="M88,-122.01C88,-144.49 88,-180 88,-180 88,-180 787.28,-180 787.28,-180"/>
<polygon fill="black" stroke="black" points="787.28,-183.5 797.28,-180 787.28,-176.5 787.28,-183.5"/>
</g>
</g>
</svg>
